<svg id="Layer_1" data-name="Layer 1" xmlns="http://www.w3.org/2000/svg" viewBox="0 0 24 24"><path d="M21.89,17.16a.62.62,0,0,0-.77.41,10,10,0,0,1-1.79,3.06,5.88,5.88,0,0,1-6.09,1.92,1.71,1.71,0,0,1-1-.71h.33A1.43,1.43,0,0,0,14,20.41a1,1,0,0,0,0-.17A4.47,4.47,0,0,0,18,15.78V6.85a4.47,4.47,0,0,0-4.36-4.46,2.28,2.28,0,0,0,0-.26A2.43,2.43,0,0,0,11.06,0,2.44,2.44,0,0,0,8.41,2.13a2.28,2.28,0,0,0,0,.26A4.47,4.47,0,0,0,4.14,6.85v8.93a4.48,4.48,0,0,0,4.1,4.46,1,1,0,0,0,0,.17,1.43,1.43,0,0,0,1.42,1.43h1.19A3,3,0,0,0,13,23.75a8.26,8.26,0,0,0,1.9.23c5.45,0,7.41-6,7.43-6A.61.61,0,0,0,21.89,17.16ZM5.68,12.29V6.85A2.93,2.93,0,0,1,8.61,3.92h1L9.69,4a1.65,1.65,0,0,1-.16-.71,1.47,1.47,0,0,1,.25-.88l.12-.15L10,2.15A.69.69,0,0,1,10.12,2l.1-.06.17-.09.07,0a1.25,1.25,0,0,1,.26-.07l.07,0,.31,0,.28,0,.06,0a.88.88,0,0,1,.23.07l.07,0A.83.83,0,0,1,11.9,2L12,2l.12.11a.3.3,0,0,1,.08.08l.12.15h0a1.55,1.55,0,0,1,.27.88,1.73,1.73,0,0,1-.17.72l.09-.06h1.06a2.93,2.93,0,0,1,2.93,2.9H12.92a.71.71,0,0,0,0,1.42H16.5v1.4H12.92a.71.71,0,0,0,0,1.42H16.5v1.23Z"/></svg>