<svg id="Layer_1" data-name="Layer 1" xmlns="http://www.w3.org/2000/svg" viewBox="0 0 24 24"><path d="M21.48,3.55l0,0-.07,0a3.43,3.43,0,0,0-.52-.23L17,1.74,12.91.09a.52.52,0,0,0-.37,0L2.63,3.69a1.43,1.43,0,0,0-1.18,1.4V19.37a1.43,1.43,0,0,0,1.06,1.38L12.12,24a1.62,1.62,0,0,0,.44.07,1.45,1.45,0,0,0,.87-.3l7.91-4.69a1.4,1.4,0,0,0,.68-1.2V4.64A1.37,1.37,0,0,0,21.48,3.55ZM16.3,1.66h0S16.3,1.66,16.3,1.66Zm-3.59-.53,1.56.63L6.79,4.9l-2.3-.77ZM11.22,8.34V22.2L2.89,19.4s0,0,0,0h0V5.09s0,0,.05,0l2.29.77.24.09v4l3,1L8.49,7l2.77,1A1.1,1.1,0,0,0,11.22,8.34Zm1.33-1.5L10,6,14.7,3.77l2.17-.91,2.34.9Zm8.08,11-2.78,1.65L14,21.79h0l-1.39.83V8.34l1.26-.58h0l6.76-3.12Z"/><path d="M14.3,12.8a.67.67,0,0,0,.28-.06L18,11a.62.62,0,1,0-.57-1.1L14,11.63a.62.62,0,0,0-.26.84A.61.61,0,0,0,14.3,12.8Z"/><path d="M18.79,11.48,14,13.94a.63.63,0,0,0-.26.84.6.6,0,0,0,.55.34.55.55,0,0,0,.28-.07l4.78-2.46a.62.62,0,0,0,.26-.84A.62.62,0,0,0,18.79,11.48Z"/><path d="M18.79,13.78,14,16.24a.62.62,0,0,0-.26.84.61.61,0,0,0,.55.33.55.55,0,0,0,.28-.07l4.78-2.46a.62.62,0,0,0-.57-1.1Z"/><polygon points="15.65 1.18 5.08 5.61 5.24 10.37 8.42 11.48 8.5 6.92 18.44 2.28 15.65 1.18"/></svg>