<svg id="closedefault" data-name="Layer 1" xmlns="http://www.w3.org/2000/svg" viewBox="0 0 24 24">
    <defs>
        <style>.none{fill:none;}.#adb6c5{fill:#adb6c5;}.#fff{fill:#fff;}.#0b4b85{fill:#0b4b85;}</style>
    </defs>
    <rect fill="none" x="0.01" y="0.03" width="24" height="24" rx="3.56"/>
    <path fill="#adb6c5"
          d="M20.45,1.81a1.78,1.78,0,0,1,1.78,1.78V20.48a1.78,1.78,0,0,1-1.78,1.77H3.56a1.78,1.78,0,0,1-1.78-1.77V3.59A1.78,1.78,0,0,1,3.56,1.81H20.45m0-1.78H3.56A3.57,3.57,0,0,0,0,3.59V20.48A3.56,3.56,0,0,0,3.56,24H20.45A3.57,3.57,0,0,0,24,20.48V3.59A3.57,3.57,0,0,0,20.45,0Z"/>
    <line fill="#fff" x1="8.1" y1="8.05" x2="15.91" y2="15.86"/>
    <line fill="#fff" x1="15.91" y1="8.05" x2="8.1" y2="15.86"/>
    <path fill="#0b4b85"
          d="M13.89,12l3-3A1.33,1.33,0,0,0,15,7.11l-3,3-3-3A1.33,1.33,0,0,0,7.16,9l3,3-3,3a1.34,1.34,0,0,0,0,1.89,1.34,1.34,0,0,0,1.89,0l3-3,3,3a1.33,1.33,0,0,0,1.88,0,1.34,1.34,0,0,0,0-1.89Z"/>
</svg>
