<svg id="Layer_1" data-name="Layer 1" xmlns="http://www.w3.org/2000/svg" viewBox="0 0 24 24"><defs><style>.cls-1{fill:#adb6c5;}</style></defs><path class="cls-1" d="M3.56,24H20.44A3.57,3.57,0,0,0,24,20.47V3.58A3.58,3.58,0,0,0,22.43.63C22.3.55,22.17.47,22,.4A3.52,3.52,0,0,0,20.44,0H3.56A3.49,3.49,0,0,0,1.37.79,2.88,2.88,0,0,0,1,1.07l0,0a3.85,3.85,0,0,0-.59.8A3.56,3.56,0,0,0,0,3.58V20.47a4.17,4.17,0,0,0,.07.71A3.57,3.57,0,0,0,3.56,24ZM1.78,3.58A1.78,1.78,0,0,1,3.56,1.8H20.44a1.78,1.78,0,0,1,1.78,1.78V20.47a1.78,1.78,0,0,1-1.78,1.78H3.56a1.78,1.78,0,0,1-1.78-1.78Z"/><path class="cls-1" d="M13.89,11.94l3-3A1.33,1.33,0,1,0,15,7.1l-3,3-3-3A1.33,1.33,0,1,0,7.15,9l3,3-3,3a1.34,1.34,0,0,0,.95,2.28A1.33,1.33,0,0,0,9,16.79l3-3,3,3a1.33,1.33,0,0,0,.94.39,1.34,1.34,0,0,0,1-2.28Z"/></svg>