<svg id="filterdefault" data-name="Layer 1" xmlns="http://www.w3.org/2000/svg" viewBox="0 0 24 24">
    <defs>
        <style>.#74c1de{fill:#74c1de;}.#85bb3d{fill:#85bb3d;}</style>
    </defs>
    <path fill="#74c1de"
          d="M19.09,16.38V23A.95.95,0,0,0,21,23V16.38a3.75,3.75,0,0,1-.95.12A3.67,3.67,0,0,1,19.09,16.38Z"/>
    <path fill="#74c1de" d="M21,8.76V1a.95.95,0,1,0-1.89,0V8.76A4.17,4.17,0,0,1,20,8.64,4.26,4.26,0,0,1,21,8.76Z"/>
    <path fill="#85bb3d"
          d="M21,8.76A4.26,4.26,0,0,0,20,8.64a4.17,4.17,0,0,0-.94.12,3.92,3.92,0,0,0,0,7.62,3.67,3.67,0,0,0,.94.12,3.75,3.75,0,0,0,.95-.12,3.93,3.93,0,0,0,0-7.62Zm0,5.62a2.05,2.05,0,0,1-.95.23,2,2,0,0,1-.94-.23,2,2,0,0,1,0-3.61,2,2,0,0,1,.94-.24,2.06,2.06,0,0,1,.95.24,2,2,0,0,1,0,3.61Z"/>
    <path fill="#74c1de" d="M11,10.74V23a.94.94,0,0,0,1.88,0V10.74a3.74,3.74,0,0,1-1.88,0Z"/>
    <path fill="#74c1de" d="M12.9,3.13V1A.94.94,0,1,0,11,1V3.13a3.74,3.74,0,0,1,1.88,0Z"/>
    <path fill="#85bb3d"
          d="M12.9,3.13a3.74,3.74,0,0,0-1.88,0,3.92,3.92,0,0,0,0,7.61,3.74,3.74,0,0,0,1.88,0,3.92,3.92,0,0,0,0-7.61Zm0,5.61a2,2,0,0,1-1.88,0,2,2,0,0,1,0-3.61,2,2,0,0,1,1.88,0,2,2,0,0,1,0,3.61Z"/>
    <path fill="#74c1de" d="M2.94,21v2a.95.95,0,0,0,1.89,0V21a4.17,4.17,0,0,1-.94.12A4.26,4.26,0,0,1,2.94,21Z"/>
    <path fill="#74c1de" d="M4.83,13.36V1A.95.95,0,1,0,2.94,1V13.36a4.26,4.26,0,0,1,1-.12A4.17,4.17,0,0,1,4.83,13.36Z"/>
    <path fill="#85bb3d"
          d="M4.83,13.36a4.17,4.17,0,0,0-.94-.12,4.26,4.26,0,0,0-1,.12,3.93,3.93,0,0,0,0,7.62,4.26,4.26,0,0,0,1,.12A4.17,4.17,0,0,0,4.83,21a3.92,3.92,0,0,0,0-7.62Zm0,5.62a2,2,0,0,1-.94.23,2,2,0,0,1-1-3.85,2.18,2.18,0,0,1,1-.23,2.11,2.11,0,0,1,.94.23,2,2,0,0,1,0,3.62Z"/>
</svg>
