<svg id="Layer_1" data-name="Layer 1" xmlns="http://www.w3.org/2000/svg" viewBox="0 0 24 24">
    <defs>
        <style>.cls-1{fill:#fff;}</style>
    </defs>
    <path d="M13.45,2.52H0v17.2H2a3,3,0,0,1,.72-1.95,3.07,3.07,0,0,1,4.74,0,3,3,0,0,1,.72,1.95h5.25Z"/>
    <path d="M7.2,19.72a2,2,0,0,0-.49-1.31c-.06-.07-.13-.13-.19-.19a2,2,0,0,0-2.3-.37L4.05,18a2.12,2.12,0,0,0-.54.45A2.05,2.05,0,0,0,3,19.75a2.1,2.1,0,0,0,4.2,0S7.2,19.73,7.2,19.72Z"/>
    <path d="M24,11.49,19,7.19H14.85V19.72h1.58a3.09,3.09,0,0,1,5.47-1.95,3.08,3.08,0,0,1,.71,1.82H24Zm-7.41.59V8.83h1.6L22,12.08Z"/>
    <polygon class="cls-1" points="16.6 8.83 16.6 12.08 22.02 12.08 18.2 8.83 16.6 8.83"/>
    <path d="M19.53,17.65a2.13,2.13,0,0,0-2.1,2.1,2.09,2.09,0,1,0,2.1-2.1Z"/>
</svg>