<svg id="notificationOnHeader" data-name="Layer 1" xmlns="http://www.w3.org/2000/svg" >
    <path fill="#f57e20" d="M12,6.07a.73.73,0,0,1-.72-.73V1.41a.73.73,0,1,1,1.45,0V5.34A.73.73,0,0,1,12,6.07Z"/>
    <path fill="#f57e20"
          d="M4.94,13.41H.75A.73.73,0,0,1,0,12.68.73.73,0,0,1,.75,12H4.94a.73.73,0,0,1,.73.72A.73.73,0,0,1,4.94,13.41Z"/>
    <path fill="#f57e20"
          d="M23.3,13.41h-4a.73.73,0,0,1-.73-.73.73.73,0,0,1,.73-.72h4a.72.72,0,0,1,.72.72A.73.73,0,0,1,23.3,13.41Z"/>
    <path fill="#f57e20"
          d="M17.67,7.76a.75.75,0,0,1-.52-.21.73.73,0,0,1,0-1L19.48,4.2a.72.72,0,0,1,1,1L18.18,7.55A.73.73,0,0,1,17.67,7.76Z"/>
    <path fill="#f57e20"
          d="M6.62,8a.7.7,0,0,1-.51-.22L3.54,5.22a.72.72,0,1,1,1-1L7.14,6.77a.72.72,0,0,1,0,1A.7.7,0,0,1,6.62,8Z"/>
    <path fill="#fff"
          d="M18.08,18.45,16.34,10c-.07-.43-.42-1.83-1.65-1.83H9.61C8.37,8.13,8,9.53,8,10L6.22,18.45a1.69,1.69,0,0,0,.34,3.34H17.74a1.69,1.69,0,0,0,.34-3.34ZM9.49,10.62a1,1,0,0,1,.94-.94h3.64a1,1,0,0,1,.95.94l1.66,7.44-8.75,0Z"/>
    <path fill="#f57e20" d="M14.14,9.62H10.43a1,1,0,0,0-1,1L7.89,18.12l8.89,0L15.1,10.57A1,1,0,0,0,14.14,9.62Z"/>
</svg>