<svg id="Layer_1" data-name="Layer 1" xmlns="http://www.w3.org/2000/svg" viewBox="0 0 24 24"><defs><style>.cls-1{fill:#fff;}.cls-2{fill:#74c1de;}.cls-3{fill:#0b4b85;}.cls-4{fill:#adb6c5;}</style></defs><path class="cls-1" d="M3.21,5s0,0,0,0V19.33h0l0,0,8.33,2.8s0-14.07,0-14.17Z"/><polygon class="cls-1" points="17.19 2.82 15.03 3.73 10.28 5.92 12.88 6.79 19.54 3.72 17.19 2.82"/><polygon class="cls-1" points="14.6 1.72 13.04 1.09 4.81 4.08 7.12 4.86 14.6 1.72"/><path class="cls-1" d="M22.34,17.82a1.38,1.38,0,0,1-.68,1.2l-7.9,4.69a1.48,1.48,0,0,1-.87.3,1.32,1.32,0,0,1-.44-.08L2.84,20.71a1.45,1.45,0,0,1-1.07-1.38V5.05A1.44,1.44,0,0,1,3,3.65L12.87,0a.52.52,0,0,1,.37,0l4.1,1.66s4.2,1.62,4.36,1.73l.08,0,0,0a1.42,1.42,0,0,1,.53,1.1Z"/><path class="cls-1" d="M12.94,8.3V22.58l8-4.76V4.6Zm6.74,6.54L14.91,17.3a.58.58,0,0,1-.28.07.63.63,0,0,1-.56-.33.64.64,0,0,1,.27-.84l4.77-2.46A.62.62,0,0,1,20,14,.62.62,0,0,1,19.68,14.84ZM20,11.71a.62.62,0,0,1-.27.84L14.91,15a.72.72,0,0,1-.28.07.62.62,0,0,1-.29-1.18l4.77-2.46A.62.62,0,0,1,20,11.71Zm-2.17-1.9a.62.62,0,1,1,.57,1.11l-3.44,1.77a.58.58,0,0,1-.28.07.63.63,0,0,1-.56-.33.64.64,0,0,1,.27-.84Z"/><path class="cls-2" d="M21.81,3.5l0,0-.08,0a3,3,0,0,0-.52-.23L17.34,1.7,13.24,0a.52.52,0,0,0-.37,0L3,3.65a1.44,1.44,0,0,0-1.19,1.4V19.33a1.45,1.45,0,0,0,1.07,1.38l9.61,3.22a1.32,1.32,0,0,0,.44.08,1.48,1.48,0,0,0,.87-.3L21.66,19a1.38,1.38,0,0,0,.68-1.2V4.6A1.42,1.42,0,0,0,21.81,3.5ZM16.62,1.62h0ZM13,1.09l1.56.63L7.12,4.86,4.81,4.08ZM11.54,8.3V22.16l-8.33-2.8,0,0h0V5.05s0,0,0,0l2.29.77.24.09v4l3,1L8.82,7l2.76,1A1.55,1.55,0,0,0,11.54,8.3Zm1.34-1.51-2.6-.87L15,3.73l2.16-.91,2.35.9Zm8.07,11-2.78,1.65-3.84,2.28h0l-1.39.83V8.3l1.26-.58h0L21,4.6Z"/><path class="cls-3" d="M14.07,12.43a.63.63,0,0,0,.56.33.58.58,0,0,0,.28-.07l3.44-1.77a.62.62,0,1,0-.57-1.11l-3.44,1.78A.64.64,0,0,0,14.07,12.43Z"/><path class="cls-3" d="M14.07,14.74a.64.64,0,0,0,.56.34.72.72,0,0,0,.28-.07l4.77-2.46a.62.62,0,0,0-.57-1.11L14.34,13.9A.64.64,0,0,0,14.07,14.74Z"/><path class="cls-3" d="M19.11,13.74,14.34,16.2a.64.64,0,0,0-.27.84.63.63,0,0,0,.56.33.58.58,0,0,0,.28-.07l4.77-2.46A.62.62,0,0,0,20,14,.62.62,0,0,0,19.11,13.74Z"/><polygon class="cls-4" points="15.97 1.14 5.4 5.57 5.57 10.33 8.74 11.44 8.83 6.87 18.77 2.24 15.97 1.14"/></svg>