<svg id="availabilitycalendardefault" data-name="Layer 1" xmlns="http://www.w3.org/2000/svg" viewBox="0 0 24 24">
    <defs>
        <style>.cls-1{fill:#85bb3d;}.cls-2{fill:#fff;}.cls-3{fill:#74c1de;}</style>
    </defs>
    <path  fill="#85bb3d" d="M24,5.52a4.1,4.1,0,0,0-4.13-4.06H18.08V.82a.83.83,0,0,0-1.66,0v.64H12.71V.82A.83.83,0,0,0,11.88,0a.82.82,0,0,0-.82.82v.64H7.34V.82a.83.83,0,0,0-1.65,0v.64H4.14A4.11,4.11,0,0,0,0,5.52V19.9a4.09,4.09,0,0,0,3.51,4,2.58,2.58,0,0,0,.62.09h14a.87.87,0,0,0,.6-.24l5-5a.86.86,0,0,0,.25-.6V16.83s0,0,0-.07ZM22.3,17.83H20.37c-1.72.24-2.05,1-2.05,2.33v1.06c0,.17,0,1.12,0,1.12H4.14a2.46,2.46,0,0,1-2.48-2.41V6.41H22.3Z"/>
    <path  fill="#fff" d="M1.66,20a2.45,2.45,0,0,0,2.48,2.4H18.3s0-.94,0-1.11V20.18c0-1.3.33-2.09,2.05-2.32H22.3V6.43H1.66Z"/>
    <path  fill="#74c1de" d="M11.06,11.53l-2,1.75L7.88,11.91l3.23-2.73h2v9.91h-2Z"/>
</svg>
