<svg id="Layer_1" data-name="Layer 1" xmlns="http://www.w3.org/2000/svg" viewBox="0 0 24 24"><defs><style>.cls-1{fill:#0b4b85;}.cls-2{fill:#74c1de;}</style></defs><rect class="cls-1" x="17.05" y="12.65" width="4.63" height="5.5" transform="translate(-3.25 5.36) rotate(-14.54)"/><circle class="cls-2" cx="7.25" cy="2.48" r="2.43"/><path class="cls-2" d="M24,18a1,1,0,0,0-1.19-.7l-6,1.52L15.2,12.55A4.35,4.35,0,0,0,9.92,9.44l-.06,0a2.35,2.35,0,0,1-.55-.67C8.9,8,8.56,7.2,8.2,6.4a1.5,1.5,0,0,0-1.32-.94,8.3,8.3,0,0,0-1.41,0A1.52,1.52,0,0,0,4,6.74c-.22.81-.45,1.62-.66,2.44-.5,2-1.51,2.15-1.05,5.57l.51-.06L2.46,17.2l-2.24,4a1.47,1.47,0,0,0,2.57,1.44l2.37-4.25a1.61,1.61,0,0,0,.18-.52l.08-.63L6,18l.34,4.63A1.47,1.47,0,0,0,7.76,24h.1a1.48,1.48,0,0,0,1.37-1.58l-.37-5a1.38,1.38,0,0,0-.25-.71l-1.7-2.53.25,0A3.87,3.87,0,0,1,6.8,13c.24-1.11.3-2.18.57-3.29a7.35,7.35,0,0,0,1,1.29,21.23,21.23,0,0,0,2,1.3,1,1,0,0,0,1.2,0l.43-.69a2.31,2.31,0,0,1,1.22,1.51l1.87,7.19a1,1,0,0,0,1,.73,1,1,0,0,0,.24,0l.95-.24a1.32,1.32,0,0,0-.25.28,1.48,1.48,0,0,0-.16,1.13,1.5,1.5,0,0,0,1.45,1.12,1.64,1.64,0,0,0,.37-.05,1.44,1.44,0,0,0,.91-.69,1.48,1.48,0,0,0,.16-1.13,1.49,1.49,0,0,0-1-1l2.26-.58a1.49,1.49,0,0,0,1,2.59,1.57,1.57,0,0,0,.37,0,1.44,1.44,0,0,0,.91-.69,1.48,1.48,0,0,0-.92-2.19l.85-.22A1,1,0,0,0,24,18Z"/></svg>