<svg id="Layer_1" data-name="Layer 1" xmlns="http://www.w3.org/2000/svg" viewBox="0 0 24 24"><defs><style>.cls-1{fill:#fff;}.cls-2{fill:#82539a;}.cls-3{fill:#74c1de;}</style></defs><path class="cls-1" d="M12.2,7.52a.71.71,0,0,1,.71-.71h3.58A2.94,2.94,0,0,0,13.56,3.9H12.5L12.4,4a1.53,1.53,0,0,0,.17-.72,1.55,1.55,0,0,0-.26-.88l-.12-.15-.08-.08L12,2,11.89,2l-.16-.09-.07,0-.24-.07h-.05a1.33,1.33,0,0,0-.28,0,1.55,1.55,0,0,0-.31,0h-.07l-.26.07-.07,0L10.2,2,10.11,2,10,2.13l-.08.08-.12.15a1.47,1.47,0,0,0-.25.88A1.64,1.64,0,0,0,9.67,4L9.59,3.9h-1A2.94,2.94,0,0,0,5.67,6.84v5.43H16.49V11H12.91a.71.71,0,1,1,0-1.42h3.58V8.22H12.91A.7.7,0,0,1,12.2,7.52Z"/><path class="cls-2" d="M21.88,17.15a.61.61,0,0,0-.78.4,9.53,9.53,0,0,1-1.79,3.06,5.86,5.86,0,0,1-6.08,1.93,1.7,1.7,0,0,1-1-.72h.33A1.43,1.43,0,0,0,14,20.4a1.1,1.1,0,0,0,0-.18A4.47,4.47,0,0,0,18,15.77v-.2H4.12v.2a4.48,4.48,0,0,0,4.11,4.45,1.1,1.1,0,0,0,0,.18,1.43,1.43,0,0,0,1.42,1.42h1.18A3,3,0,0,0,13,23.74a8.81,8.81,0,0,0,1.9.22c5.45,0,7.41-6,7.43-6A.62.62,0,0,0,21.88,17.15Z"/><path class="cls-2" d="M18,6.84a4.48,4.48,0,0,0-4.36-4.47,2.11,2.11,0,0,0,0-.25A2.44,2.44,0,0,0,11,0,2.44,2.44,0,0,0,8.4,2.12a2.11,2.11,0,0,0,0,.25,4.49,4.49,0,0,0-4.3,4.47v8.73H18ZM16.49,8.22v1.4m0,1.42v1.23H5.67V6.84A2.94,2.94,0,0,1,8.6,3.9h1L9.67,4a1.64,1.64,0,0,1-.15-.71,1.47,1.47,0,0,1,.25-.88l.12-.15L10,2.13,10.11,2,10.2,2l.18-.09.07,0,.26-.07h.07a1.55,1.55,0,0,1,.31,0,1.33,1.33,0,0,1,.28,0h.05l.24.07.07,0,.16.09L12,2l.13.1.08.08.12.15a1.55,1.55,0,0,1,.26.88A1.53,1.53,0,0,1,12.4,4l.1-.06h1.06a2.94,2.94,0,0,1,2.93,2.91"/><path class="cls-3" d="M12.2,10.33a.71.71,0,0,0,.71.71h3.58V9.63H12.91A.7.7,0,0,0,12.2,10.33Z"/><path class="cls-3" d="M12.91,6.81a.71.71,0,1,0,0,1.42h3.58V6.81Z"/></svg>