<svg id="Layer_1" data-name="Layer 1" xmlns="http://www.w3.org/2000/svg" viewBox="0 0 24 24"><defs><style>.cls-1{fill:#0b4b85;}</style></defs><path class="cls-1" d="M16.45,15.13l.08-.13-.82-3L15.58,12l-1.31.36A6.68,6.68,0,0,0,13,10.69l.67-1.19,0-.15L10.94,7.84l-.15,0-.67,1.18A6.74,6.74,0,0,0,8.26,8.8H8.05L7.69,7.5l-.14-.07L4.6,8.24l-.08.14.36,1.31A6.84,6.84,0,0,0,3.24,11L2.06,10.3l-.15,0L.4,13l0,.15,1.18.67a6.53,6.53,0,0,0-.25,2.07l-1.31.37L0,16.4l.82,3,.13.07,1.31-.36a6.45,6.45,0,0,0,1.29,1.64L2.86,21.9l0,.15,2.67,1.51.15,0,.66-1.18a6.87,6.87,0,0,0,1.87.26h.21l.36,1.31L9,24l3-.82L12,23l-.37-1.31a7.15,7.15,0,0,0,1.65-1.28l1.18.67.15,0,1.51-2.67,0-.15-1.18-.67a7.16,7.16,0,0,0,.25-2.07Zm-8.2,3.64a3.07,3.07,0,1,1,3.08-3.07A3.07,3.07,0,0,1,8.25,18.77Z"/><path class="cls-1" d="M22.73,5.39l.07-.12-.51-1.82-.12-.07-.77.22a4.56,4.56,0,0,0-.77-1l.4-.7,0-.13L19.35.86l-.13,0-.4.7a4.23,4.23,0,0,0-1.13-.16h-.1L17.38.67,17.25.6l-1.81.5-.07.12.22.78a4.08,4.08,0,0,0-1,.76l-.7-.39-.14,0L12.84,4l0,.14.7.4a4.23,4.23,0,0,0-.15,1.23L12.65,6l-.07.12L13.09,8l.12.07L14,7.81h0a4.33,4.33,0,0,0,.77,1l-.4.7,0,.14,1.64.92.13,0,.4-.71a3.86,3.86,0,0,0,1.13.16h.1l.22.77.12.07,1.81-.5.07-.12-.21-.78a4.23,4.23,0,0,0,1-.76l.71.39.13,0,.93-1.64,0-.14-.7-.39A4.32,4.32,0,0,0,22,5.61Zm-5,2.13a1.82,1.82,0,1,1,1.82-1.81A1.81,1.81,0,0,1,17.69,7.52Z"/><path class="cls-1" d="M23.91,14.63,24,14.5l-.35-1.27-.13-.07L23,13.3a3.07,3.07,0,0,0-.5-.64l.26-.47,0-.14-1.14-.65-.14,0-.27.46a3.25,3.25,0,0,0-.77-.1h-.05l-.14-.52-.13-.07-1.26.35-.08.13.15.51a2.93,2.93,0,0,0-.65.51l-.47-.27-.14,0L17,13.64l0,.14.47.27a2.73,2.73,0,0,0-.1.81l-.52.14-.07.13.35,1.27.13.07.51-.14a2.93,2.93,0,0,0,.51.65l-.26.46,0,.15,1.15.65.14,0,.27-.47a2.76,2.76,0,0,0,.77.1h0l.15.52.12.07L22,18.07l.07-.13-.14-.52a3.21,3.21,0,0,0,.65-.5l.47.26.14,0L23.8,16l0-.15-.47-.26a3.18,3.18,0,0,0,.1-.82ZM20.38,16.1a1.29,1.29,0,1,1,1.28-1.28A1.28,1.28,0,0,1,20.38,16.1Z"/></svg>