<svg id="mycalendardefault" data-name="Layer 1" xmlns="http://www.w3.org/2000/svg" viewBox="0 0 24 24">
    <defs>
        <style>.cls-1{fill:#fff;}
            .cls-2{fill:#74c1de;}
            .cls-3{fill:none;}
            .#adb6c5{fill:#adb6c5;}
            .cls-5{fill:#0b4b85;}
        </style>
    </defs>
    <path fill="#fff"
          d="M1.68,20a2.47,2.47,0,0,0,2.48,2.41H18.32s0-.95,0-1.12V20.21c0-1.31.33-2.1,2.05-2.33h1.93V6.45H1.68Z"/>
    <path fill="#74c1de"
          d="M22.34,5.59a2.47,2.47,0,0,0-2.48-2.44H18.08V4a.83.83,0,0,1-1.66,0V3.15H12.71V4a.83.83,0,0,1-1.65,0V3.15H7.34V4A.83.83,0,0,1,5.69,4V3.15H4.14A2.47,2.47,0,0,0,1.65,5.59V5.8H22.34Z"/>
    <path fill="none"
          d="M1.66,20a2.46,2.46,0,0,0,2.48,2.41H15.69l0-2.18a4.68,4.68,0,0,1,4.65-4.71H22.3V7H1.66ZM19.21,8.76A.77.77,0,0,1,20,8H20a.76.76,0,0,1,.76.76v.05a.76.76,0,0,1-.76.76H20a.77.77,0,0,1-.76-.76Zm0,2.79a.77.77,0,0,1,.76-.76H20a.76.76,0,0,1,.76.76v0a.76.76,0,0,1-.76.76H20a.77.77,0,0,1-.76-.76Zm0,2.79a.77.77,0,0,1,.76-.76H20a.76.76,0,0,1,.76.76v.05a.76.76,0,0,1-.76.76H20a.77.77,0,0,1-.76-.76ZM16.52,8.76A.76.76,0,0,1,17.28,8h0a.76.76,0,0,1,.75.76v.05a.76.76,0,0,1-.75.76h0a.76.76,0,0,1-.76-.76Zm0,2.79a.76.76,0,0,1,.76-.76h0a.76.76,0,0,1,.75.76v0a.76.76,0,0,1-.75.76h0a.76.76,0,0,1-.76-.76Zm0,2.79a.76.76,0,0,1,.76-.76h0a.76.76,0,0,1,.75.76v.05a.76.76,0,0,1-.75.76h0a.76.76,0,0,1-.76-.76Zm-2.7-5.58A.76.76,0,0,1,14.58,8h.05a.76.76,0,0,1,.76.76v.05a.76.76,0,0,1-.76.76h-.05a.76.76,0,0,1-.76-.76Zm0,2.79a.76.76,0,0,1,.76-.76h.05a.76.76,0,0,1,.76.76v0a.76.76,0,0,1-.76.76h-.05a.76.76,0,0,1-.76-.76Zm0,2.79a.76.76,0,0,1,.76-.76h.05a.76.76,0,0,1,.76.76v.05a.76.76,0,0,1-.76.76h-.05a.76.76,0,0,1-.76-.76Zm0,2.79a.76.76,0,0,1,.76-.76h.05a.76.76,0,0,1,.76.76v.05a.76.76,0,0,1-.76.76h-.05a.76.76,0,0,1-.76-.76Zm-2.7-8.37A.77.77,0,0,1,11.88,8h0a.76.76,0,0,1,.76.76v.05a.76.76,0,0,1-.76.76h0a.77.77,0,0,1-.76-.76Zm0,2.79a.77.77,0,0,1,.76-.76h0a.76.76,0,0,1,.76.76v0a.76.76,0,0,1-.76.76h0a.77.77,0,0,1-.76-.76Zm0,2.79a.77.77,0,0,1,.76-.76h0a.76.76,0,0,1,.76.76v.05a.76.76,0,0,1-.76.76h0a.77.77,0,0,1-.76-.76Zm0,2.79a.77.77,0,0,1,.76-.76h0a.76.76,0,0,1,.76.76v.05a.76.76,0,0,1-.76.76h0a.77.77,0,0,1-.76-.76Zm0,2.79a.77.77,0,0,1,.76-.76h0a.76.76,0,0,1,.76.76v0a.76.76,0,0,1-.76.76h0a.77.77,0,0,1-.76-.76ZM8.43,11.55a.76.76,0,0,1,.75-.76h.06a.76.76,0,0,1,.75.76v0a.76.76,0,0,1-.75.76H9.18a.76.76,0,0,1-.75-.76Zm0,2.79a.76.76,0,0,1,.75-.76h.06a.76.76,0,0,1,.75.76v.05a.76.76,0,0,1-.75.76H9.18a.76.76,0,0,1-.75-.76Zm0,2.79a.76.76,0,0,1,.75-.76h.06a.76.76,0,0,1,.75.76v.05a.76.76,0,0,1-.75.76H9.18a.76.76,0,0,1-.75-.76Zm0,2.79a.76.76,0,0,1,.75-.76h.06a.76.76,0,0,1,.75.76v0a.76.76,0,0,1-.75.76H9.18A.76.76,0,0,1,8.43,20Zm-2.7-8.37a.76.76,0,0,1,.76-.76h0a.76.76,0,0,1,.76.76v0a.76.76,0,0,1-.76.76h0a.76.76,0,0,1-.76-.76Zm0,2.79a.76.76,0,0,1,.76-.76h0a.76.76,0,0,1,.76.76v.05a.76.76,0,0,1-.76.76h0a.76.76,0,0,1-.76-.76Zm0,2.79a.76.76,0,0,1,.76-.76h0a.76.76,0,0,1,.76.76v.05a.76.76,0,0,1-.76.76h0a.76.76,0,0,1-.76-.76Zm0,2.79a.76.76,0,0,1,.76-.76h0a.76.76,0,0,1,.76.76v0a.76.76,0,0,1-.76.76h0A.76.76,0,0,1,5.73,20ZM3,11.55a.76.76,0,0,1,.76-.76h0a.76.76,0,0,1,.76.76v0a.76.76,0,0,1-.76.76h0A.76.76,0,0,1,3,11.6Zm0,2.79a.76.76,0,0,1,.76-.76h0a.76.76,0,0,1,.76.76v.05a.76.76,0,0,1-.76.76h0A.76.76,0,0,1,3,14.39Zm0,2.79a.76.76,0,0,1,.76-.76h0a.76.76,0,0,1,.76.76v.05a.76.76,0,0,1-.76.76h0A.76.76,0,0,1,3,17.18Zm0,2.79a.76.76,0,0,1,.76-.76h0a.76.76,0,0,1,.76.76v0a.76.76,0,0,1-.76.76h0A.76.76,0,0,1,3,20Z"/>
    <rect fill="#adb6c5" x="11.12" y="8" width="1.57" height="1.57" rx="0.76"/>
    <rect fill="#adb6c5" x="13.82" y="8" width="1.57" height="1.57" rx="0.76"/>
    <rect fill="#adb6c5" x="16.52" y="8" width="1.57" height="1.57" rx="0.76"/>
    <rect fill="#adb6c5" x="19.21" y="8" width="1.57" height="1.57" rx="0.76"/>
    <rect fill="#adb6c5" x="3.03" y="10.79" width="1.57" height="1.57" rx="0.76"/>
    <rect fill="#adb6c5" x="5.73" y="10.79" width="1.57" height="1.57" rx="0.76"/>
    <rect fill="#adb6c5" x="8.43" y="10.79" width="1.57" height="1.57" rx="0.76"/>
    <rect fill="#adb6c5" x="11.12" y="10.79" width="1.57" height="1.57" rx="0.76"/>
    <rect fill="#adb6c5" x="13.82" y="10.79" width="1.57" height="1.57" rx="0.76"/>
    <rect fill="#adb6c5" x="16.52" y="10.79" width="1.57" height="1.57" rx="0.76"/>
    <rect fill="#adb6c5" x="19.21" y="10.79" width="1.57" height="1.57" rx="0.76"/>
    <rect fill="#adb6c5" x="3.03" y="13.58" width="1.57" height="1.57" rx="0.76"/>
    <rect fill="#adb6c5" x="5.73" y="13.58" width="1.57" height="1.57" rx="0.76"/>
    <rect fill="#adb6c5" x="8.43" y="13.58" width="1.57" height="1.57" rx="0.76"/>
    <rect fill="#adb6c5" x="11.12" y="13.58" width="1.57" height="1.57" rx="0.76"/>
    <rect fill="#adb6c5" x="13.82" y="13.58" width="1.57" height="1.57" rx="0.76"/>
    <rect fill="#adb6c5" x="16.52" y="13.58" width="1.57" height="1.57" rx="0.76"/>
    <rect fill="#adb6c5" x="19.21" y="13.58" width="1.57" height="1.57" rx="0.76"/>
    <rect fill="#adb6c5" x="3.03" y="16.37" width="1.57" height="1.57" rx="0.76"/>
    <rect fill="#adb6c5" x="5.73" y="16.37" width="1.57" height="1.57" rx="0.76"/>
    <rect fill="#adb6c5" x="8.43" y="16.37" width="1.57" height="1.57" rx="0.76"/>
    <rect fill="#adb6c5" x="11.12" y="16.37" width="1.57" height="1.57" rx="0.76"/>
    <rect fill="#adb6c5" x="13.82" y="16.37" width="1.57" height="1.57" rx="0.76"/>
    <rect fill="#adb6c5" x="3.03" y="19.16" width="1.57" height="1.57" rx="0.76"/>
    <rect fill="#adb6c5" x="5.73" y="19.16" width="1.57" height="1.57" rx="0.76"/>
    <rect fill="#adb6c5" x="8.43" y="19.16" width="1.57" height="1.57" rx="0.76"/>
    <rect fill="#adb6c5" x="11.12" y="19.16" width="1.57" height="1.57" rx="0.76"/>
    <path fill="#0b4b85"
          d="M24,16.83V5.59a4.1,4.1,0,0,0-4.13-4.06H18.08V.89a.83.83,0,0,0-1.66,0v.64H12.71V.89a.83.83,0,0,0-1.65,0v.64H7.34V.89a.83.83,0,0,0-1.65,0v.64H4.14A4.11,4.11,0,0,0,0,5.59V20a4.09,4.09,0,0,0,3.51,4,2.57,2.57,0,0,0,.62.08h14a.84.84,0,0,0,.6-.25l5-5a.86.86,0,0,0,.25-.61V16.9S24,16.85,24,16.83Zm-1.65-11H1.65V5.59A2.47,2.47,0,0,1,4.14,3.15H5.69V4A.83.83,0,0,0,7.34,4V3.15h3.72V4a.83.83,0,0,0,1.65,0V3.15h3.71V4a.83.83,0,0,0,1.66,0V3.15h1.78a2.47,2.47,0,0,1,2.48,2.44Zm0,9.72H20.37a4.68,4.68,0,0,0-4.65,4.71v1.06a4.36,4.36,0,0,0,0,.51v.61H4.14A2.46,2.46,0,0,1,1.66,20V7H22.3Z"/>
</svg>
