<svg id="patientdefault" data-name="Layer 1" xmlns="http://www.w3.org/2000/svg" viewBox="0 0 24 24">
    <defs>
        <style>.cls-1,.cls-2{fill:#74c1de;}.#74c1de{opacity:0.8;}</style>
    </defs>
    <path fill="#74c1de" opacity="0.8"
          d="M10.81,13.25A6,6,0,0,1,10,12.1a4.8,4.8,0,0,1-2.23.54,4.9,4.9,0,0,1-3.16-1.15C1.88,12.33,0,14.2,0,16.39,0,18.78,2.26,18.27,5.38,18A8.45,8.45,0,0,1,10.81,13.25Z"/>
    <path fill="#74c1de" opacity="0.8"
          d="M6.16,11.14a3.65,3.65,0,0,0,3.16,0l.19-.1a5.95,5.95,0,0,1,1.11-5.71,3.76,3.76,0,1,0-4.46,5.81Z"/>
    <path fill="#74c1de"
          d="M18.36,14.31a6,6,0,0,1-3.08.89h0a6,6,0,0,1-3.13-.89,7.9,7.9,0,0,0-5.16,3.56c-.31.6-1.48,3-.73,4.1.48.69.52.57.61.65a6.21,6.21,0,0,0,4.28.86c1.24-.12,2.64-.27,4.13-.27s2.89.15,4.13.27a6.24,6.24,0,0,0,4.28-.86c.09-.08.36-.33.36-1.17A8.31,8.31,0,0,0,18.36,14.31Z"/>
    <path fill="#74c1de"
          d="M10.88,10.71a3.64,3.64,0,0,0,.25.57c.06.12.13.24.2.36a4.73,4.73,0,0,0,1.06,1.17,4.27,4.27,0,0,0,.89.55,4.69,4.69,0,0,0,1.17.37,4.92,4.92,0,0,0,.78.07,4.57,4.57,0,0,0,1.95-.44,4.27,4.27,0,0,0,.89-.55,4.6,4.6,0,0,0-2.84-8.23,4.55,4.55,0,0,0-3,1.13,4.47,4.47,0,0,0-.44.43,4.65,4.65,0,0,0-.42.57,4.57,4.57,0,0,0-.73,2.48,4.69,4.69,0,0,0,.08.84A4.84,4.84,0,0,0,10.88,10.71Z"/>
</svg>
