<svg id="resourcesactive" data-name="Layer 1" xmlns="http://www.w3.org/2000/svg" viewBox="0 0 24 24">
    <defs>
        <style>.#74c1de{fill:#adb6c5;}</style>
    </defs>
    <rect fill="#74c1de" x="8.28" y="4.39" width="3.98" height="15.84"/>
    <path fill="#74c1de" d="M11.8.33H8.74A.47.47,0,0,0,8.27.8V2.69h4V.8A.47.47,0,0,0,11.8.33Z"/>
    <path fill="#74c1de" d="M8.27,23.53a.47.47,0,0,0,.47.47H11.8a.47.47,0,0,0,.47-.47V21.64h-4Z"/>
    <rect fill="#74c1de" x="15.74" y="4.08" width="3.98" height="15.84"
          transform="translate(-2.44 4.83) rotate(-14.52)"/>
    <path fill="#74c1de" d="M16.77.35A.47.47,0,0,0,16.2,0l-3,.77a.46.46,0,0,0-.33.57l.47,1.83,3.87-1Z"/>
    <path fill="#74c1de" d="M22.47,22.36,22,20.53l-3.87,1,.48,1.83a.47.47,0,0,0,.57.34l3-.77A.46.46,0,0,0,22.47,22.36Z"/>
    <rect fill="#74c1de" x="2.65" y="7.28" width="3.98" height="12.96"/>
    <path fill="#74c1de" d="M6.17,3.22H3.11a.47.47,0,0,0-.47.46v1.9h4V3.68A.47.47,0,0,0,6.17,3.22Z"/>
    <path fill="#74c1de" d="M2.64,23.53a.47.47,0,0,0,.47.47H6.17a.47.47,0,0,0,.47-.47V21.64h-4Z"/>
</svg>
