<svg id="servicesdefault" data-name="Layer 1" xmlns="http://www.w3.org/2000/svg" viewBox="0 0 24 24">
    <defs><style>.cls-1{fill:#82539a;}</style></defs>
    <path fill="#82539a" d="M8.75,18.53c.82.22,1.61.46,2.42.64,1,.23,2,.44,3,.61A1.08,1.08,0,0,0,15.44,19a1.51,1.51,0,0,0-.57-1.72c-.71-.39-1.46-.71-2.2-1.05a14.07,14.07,0,0,1-3-1.73,3.39,3.39,0,0,0-3.16-.3,25.28,25.28,0,0,1-3,.56c-.94.11-1.89.12-2.83.14-.57,0-.57,0-.59.64-.05,1.32.89,2.64.85,4,0,.36-.93.61-.5.68,1.37.23,2.72.57,4.09.82a9.38,9.38,0,0,1,3.14,1.35,8.07,8.07,0,0,0,7.13.89,19.43,19.43,0,0,0,2.7-1.16c1.88-1,3.77-1.91,5.65-2.87a1.32,1.32,0,0,0,.68-1.69,1,1,0,0,0-1.27-.67c-.86.3-1.72.64-2.57,1-1.07.42-2.13.88-3.21,1.29-.68.25-.7.21-1,.89a1.91,1.91,0,0,1-2.07.84c-1.45-.35-2.91-.66-4.36-1C8.9,19.77,8.74,19,8.75,18.53Z"/>
    <path fill="#82539a" d="M7.14,2.76c1.18-3.73,5.31-3,6.65-.14,1.34-2.83,5.48-3.59,6.65.14C22,7.53,14.37,12.91,13.79,13.29,13.21,12.91,5.63,7.53,7.14,2.76Z"/>
    <rect fill="#82539a" x="0.82" y="14.79" width="1.11" height="6.13" transform="translate(2.75 35.71) rotate(-180)"/>
    <rect fill="#82539a" x="-0.03" y="13.94" width="2.81" height="7.83"/>
</svg>
